<svg width="47" height="47" viewBox="0 0 47 47" fill="none" xmlns="http://www.w3.org/2000/svg">
<path d="M15.2809 11.2231C16.4344 11.2231 17.4723 11.323 18.424 11.5267C19.3699 11.7284 20.1767 12.0613 20.8582 12.5215C21.5299 12.9817 22.0548 13.5927 22.4327 14.3604C22.7989 15.1183 22.9811 16.0661 22.9811 17.1863C22.9811 18.4004 22.7069 19.4149 22.1566 20.2236C21.6024 21.0344 20.7858 21.6983 19.6969 22.2114C21.1794 22.6402 22.278 23.3903 23.0065 24.4556C23.7389 25.5307 24.0973 26.8174 24.0973 28.3253C24.0973 29.5492 23.8643 30.6009 23.3962 31.4841C22.9452 32.3541 22.2909 33.1025 21.4888 33.6656C20.658 34.2442 19.73 34.6687 18.7491 34.919C17.7206 35.189 16.6615 35.3246 15.5981 35.3224H3.91669V11.2231H15.2809ZM14.5935 20.96C15.5335 20.96 16.3129 20.7367 16.9279 20.2844C17.5389 19.8379 17.8346 19.1015 17.8346 18.093C17.8346 17.5329 17.7347 17.0707 17.5389 16.7084C17.3481 16.3599 17.0657 16.0701 16.7222 15.8703C16.3627 15.6571 15.966 15.5142 15.5531 15.4492C15.1031 15.3653 14.6459 15.3253 14.1881 15.3298H9.22377V20.96H14.5935ZM14.8892 31.2197C15.4121 31.2197 15.9095 31.1746 16.3776 31.0689C16.8495 30.9671 17.2686 30.8026 17.625 30.5578C17.9814 30.3228 18.2752 30.0036 18.4867 29.5962C18.7001 29.1928 18.8039 28.666 18.8039 28.0335C18.8039 26.7919 18.4534 25.9087 17.7601 25.3741C17.0649 24.8453 16.1328 24.5829 14.9911 24.5829H9.22377V31.2216L14.8892 31.2197ZM31.6624 31.1394C32.3811 31.8405 33.417 32.193 34.7644 32.193C35.7298 32.193 36.5641 31.9482 37.2671 31.4625C37.9604 30.9749 38.3834 30.454 38.5459 29.9154H42.7661C42.0885 32.0148 41.0604 33.5149 39.6543 34.4176C38.2659 35.3244 36.5758 35.7748 34.6018 35.7748C33.2271 35.7748 31.9894 35.5535 30.881 35.1148C29.8171 34.7005 28.8556 34.0604 28.0629 33.2387C27.2833 32.3979 26.6806 31.4089 26.2906 30.3306C25.862 29.1382 25.6497 27.8788 25.664 26.6117C25.664 25.3075 25.8814 24.0874 26.3083 22.9614C26.7135 21.8729 27.3358 20.8782 28.1374 20.0376C28.9305 19.2151 29.8705 18.5669 30.9652 18.091C32.1164 17.6069 33.3551 17.3655 34.6038 17.3821C36.0804 17.3821 37.3709 17.668 38.4793 18.2438C39.5542 18.7934 40.4862 19.5859 41.2014 20.5585C41.9123 21.524 42.4195 22.6304 42.7348 23.8701C43.0501 25.1077 43.1597 26.4002 43.0696 27.7534H30.4756C30.4776 29.1321 30.9417 30.4383 31.6624 31.1394ZM37.1692 21.9724C36.5993 21.3419 35.6358 21.0011 34.4569 21.0011C33.6912 21.0011 33.0586 21.1284 32.5495 21.3908C32.0839 21.626 31.6709 21.9531 31.3353 22.3524C31.0406 22.7149 30.8221 23.1332 30.693 23.5822C30.58 23.9566 30.5072 24.3419 30.4756 24.7317H38.2737C38.1601 23.5097 37.741 22.6069 37.1692 21.9724ZM29.4964 12.8407H39.2666V15.2201H29.4964V12.8407Z" fill="#A10069"/>
</svg>
