<svg width="32" height="27" viewBox="0 0 32 27" fill="none" xmlns="http://www.w3.org/2000/svg">
<path d="M23.125 18.0625C21.775 18.0625 20.3125 17.8375 19.075 17.3875C18.9625 17.3875 18.85 17.3875 18.7375 17.3875C18.4 17.3875 18.175 17.5 17.95 17.725L15.475 20.2C12.325 18.5125 9.625 15.925 8.05 12.775L10.525 10.3C10.8625 9.9625 10.975 9.5125 10.75 9.175C10.4125 7.9375 10.1875 6.475 10.1875 5.125C10.1875 4.5625 9.625 4 9.0625 4H5.125C4.5625 4 4 4.5625 4 5.125C4 15.7 12.55 24.25 23.125 24.25C23.6875 24.25 24.25 23.6875 24.25 23.125V19.1875C24.25 18.625 23.6875 18.0625 23.125 18.0625ZM6.25 6.25H7.9375C8.05 7.2625 8.275 8.275 8.5 9.175L7.15 10.525C6.7 9.175 6.3625 7.7125 6.25 6.25ZM22 22C20.5375 21.8875 19.075 21.55 17.725 21.1L19.075 19.75C19.975 19.975 20.9875 20.2 22 20.2V22Z" fill="#A10069"/>
</svg>
