<svg width="254" height="254" viewBox="0 0 254 254" fill="none" xmlns="http://www.w3.org/2000/svg">
<mask id="mask0_253_2825" style="mask-type:luminance" maskUnits="userSpaceOnUse" x="5" y="4" width="245" height="245">
<path d="M249.174 126.781C249.174 59.4267 194.573 4.82556 127.219 4.82556C59.8654 4.82556 5.26428 59.4267 5.26428 126.781C5.26428 194.135 59.8654 248.736 127.219 248.736C194.573 248.736 249.174 194.135 249.174 126.781Z" fill="white"/>
</mask>
<g mask="url(#mask0_253_2825)">
<path d="M249.174 126.781C249.174 59.4267 194.573 4.82556 127.219 4.82556C59.8654 4.82556 5.26428 59.4267 5.26428 126.781C5.26428 194.135 59.8654 248.736 127.219 248.736C194.573 248.736 249.174 194.135 249.174 126.781Z" fill="#0073A1"/>
<g clip-path="url(#clip0_253_2825)">
<path d="M177.387 162.354L112.568 165.384L113.345 146.325L179.186 130.587C179.186 130.587 181.906 149.97 177.379 162.363L177.387 162.354Z" fill="#BD8C47"/>
<path d="M112.576 167.518C112.019 167.518 111.487 167.296 111.09 166.895C110.668 166.477 110.448 165.897 110.473 165.291L111.25 146.232C111.293 145.276 111.951 144.465 112.872 144.243L178.713 128.504C179.287 128.368 179.896 128.479 180.385 128.82C180.875 129.161 181.205 129.691 181.289 130.279C181.399 131.09 184.025 150.346 179.372 163.097C179.076 163.899 178.333 164.454 177.489 164.488L112.669 167.518C112.669 167.518 112.602 167.518 112.568 167.518H112.576ZM115.397 148.024L114.781 163.14L175.859 160.289C178.713 151.08 177.877 138.379 177.37 133.207L115.397 148.024Z" fill="#1D1D1B"/>
<path d="M165.741 144.362C165.741 144.362 163.157 158.957 180.892 159.811L207.073 178.588C207.073 178.588 223.086 185.066 218.475 267.353C218.221 271.937 217.715 276.512 216.963 281.044C214.725 294.64 209.278 325.341 202.851 344.178C202.851 344.178 206.811 355.53 204.227 365.832C203.543 368.563 203.509 371.405 204.151 374.145C205.519 379.983 206.347 389.679 196.939 390.268C196.939 390.268 173.291 401.363 172.447 363.809C172.447 363.809 171.602 370.637 166.535 368.93C161.467 367.223 166.535 356.127 166.535 356.127C166.535 356.127 169.068 350.153 178.359 339.057L182.657 280.395C183.164 273.43 183.054 266.432 182.319 259.484L175.825 198.227L174.98 179.45C174.98 179.45 159.778 193.96 133.597 192.253C109.941 190.708 112.483 176.89 112.483 176.89V161.475C112.483 161.475 129.375 161.074 128.53 151.489C127.685 141.904 165.741 144.379 165.741 144.379V144.362Z" fill="#F5C694"/>
<path d="M189.532 393.502C186.897 393.502 183.933 392.939 181.112 391.164C175.555 387.664 172.202 380.521 171.121 369.886C171.011 369.963 170.901 370.039 170.791 370.116C169.837 370.722 168.232 371.286 166.003 370.534C164.685 370.091 163.697 369.169 163.14 367.863C161.341 363.655 164.618 356.23 164.998 355.393C165.082 355.188 167.65 349.256 176.712 338.357L180.968 280.25C181.466 273.405 181.357 266.466 180.63 259.646L174.136 198.39C174.136 198.39 174.136 198.321 174.136 198.287L173.443 182.881C167.894 187.004 154.044 195.274 133.487 193.934C123.809 193.303 117.069 190.597 113.446 185.894C110.321 181.84 110.668 177.666 110.794 176.736V161.441C110.794 160.519 111.529 159.76 112.441 159.734C115.102 159.666 122.66 158.752 125.625 155.398C126.579 154.323 126.976 153.077 126.849 151.609C126.714 150.089 127.246 148.672 128.378 147.495C134.813 140.829 162.692 142.433 165.851 142.638C166.332 142.672 166.771 142.903 167.075 143.287C167.371 143.671 167.489 144.157 167.413 144.635C167.413 144.687 166.602 149.654 169.626 153.452C171.872 156.277 175.69 157.839 180.985 158.087C181.306 158.104 181.618 158.215 181.88 158.402L207.935 177.086C210.468 178.358 224.572 188.992 220.172 267.43C219.91 272.039 219.395 276.708 218.644 281.3C216.574 293.863 211.102 324.957 204.649 344.161C205.443 346.679 208.256 356.767 205.882 366.224C205.266 368.682 205.241 371.277 205.815 373.718C206.854 378.156 207.487 384.267 204.582 388.228C202.977 390.413 200.553 391.65 197.369 391.915C196.407 392.325 193.324 393.477 189.557 393.477L189.532 393.502ZM172.447 362.093C172.447 362.093 172.506 362.093 172.54 362.093C173.418 362.144 174.119 362.861 174.136 363.758C174.423 376.543 177.37 384.788 182.894 388.262C188.924 392.06 196.153 388.74 196.229 388.706C196.423 388.62 196.626 388.561 196.837 388.552C199.168 388.407 200.807 387.639 201.854 386.213C203.518 383.943 203.746 379.795 202.513 374.52C201.812 371.542 201.845 368.384 202.597 365.396C205.029 355.709 201.305 344.844 201.271 344.733C201.144 344.366 201.144 343.973 201.271 343.606C207.724 324.692 213.238 293.351 215.316 280.753C216.051 276.281 216.549 271.74 216.802 267.251C221.219 188.583 206.55 180.218 206.398 180.141C206.271 180.09 206.22 180.056 206.11 179.979L180.326 161.484C174.254 161.1 169.761 159.111 166.965 155.56C164.288 152.172 163.9 148.237 163.934 145.958C152.456 145.369 134.645 145.916 130.802 149.893C130.228 150.482 130.194 150.96 130.228 151.318C130.439 153.751 129.746 155.893 128.158 157.694C124.62 161.689 117.441 162.772 114.189 163.063V176.881C114.189 176.983 114.181 177.094 114.164 177.197C114.147 177.325 113.624 180.611 116.191 183.88C119.172 187.687 125.236 189.991 133.732 190.546C158.799 192.176 173.705 178.341 173.849 178.204C174.33 177.752 175.031 177.615 175.639 177.863C176.247 178.11 176.661 178.699 176.695 179.365L177.539 198.091L184.025 259.296C184.769 266.329 184.887 273.464 184.372 280.514L180.073 339.176C180.048 339.535 179.912 339.876 179.676 340.149C170.715 350.852 168.139 356.733 168.114 356.793C166.906 359.447 165.352 364.389 166.265 366.514C166.442 366.933 166.687 367.163 167.092 367.3C168.148 367.658 168.688 367.428 169.001 367.231C170.166 366.489 170.698 364.295 170.791 363.578C170.901 362.725 171.619 362.093 172.464 362.093H172.447Z" fill="#1D1D1B"/>
<path d="M113.353 146.317C113.353 146.317 109.95 193.943 116.706 217.841C116.706 217.841 74.4787 215.281 84.6133 169.191C94.7479 123.101 93.7175 87.5098 93.7175 87.5098C93.7175 87.5098 74.4787 62.5019 104.883 36.0431C118.818 23.9232 133.285 20.3982 144.872 20.1421C158.824 19.8349 172.311 25.212 182.623 34.7116C192.04 43.3833 202.766 57.2955 203.703 76.1581L207.082 180.287C207.082 180.287 207.926 199.917 190.191 206.745C190.191 206.745 179.211 217.841 165.699 212.72C165.699 212.72 177.505 197.784 179.203 130.57L113.362 146.308L113.353 146.317Z" fill="#BD8C47"/>
<path d="M116.706 219.984C116.706 219.984 116.622 219.984 116.58 219.984C115.828 219.941 97.9656 218.703 87.7297 204.996C80.9901 195.966 79.2504 183.76 82.5526 168.739C91.7835 126.771 91.6906 93.1772 91.623 88.2098C88.8529 84.0447 74.6222 59.5745 103.506 34.43C115.634 23.8721 129.535 18.3498 144.821 18.017C159.196 17.7012 173.105 23.0698 184.034 33.1412C193.425 41.7873 204.818 56.2543 205.798 76.0558L209.176 180.218C209.176 180.406 209.86 201.147 191.331 208.581C189.262 210.518 178.367 219.804 164.947 214.717C164.314 214.478 163.832 213.949 163.655 213.283C163.477 212.618 163.621 211.918 164.043 211.389C164.145 211.261 175.124 196.068 177.007 133.284L115.363 148.024C114.857 156.405 112.838 196.392 118.742 217.252C118.927 217.918 118.784 218.635 118.362 219.173C117.956 219.676 117.357 219.975 116.715 219.975L116.706 219.984ZM146.029 22.2675C145.657 22.2675 145.286 22.2675 144.923 22.276C130.641 22.5918 117.635 27.7726 106.268 37.6648C77.8146 62.4252 94.6634 85.2481 95.3982 86.2126C95.6684 86.5711 95.8289 87.0063 95.8374 87.4587C95.8458 87.8172 96.7579 123.844 86.6824 169.66C83.6589 183.411 85.1538 194.429 91.1163 202.418C97.8558 211.448 108.7 214.402 113.894 215.315C108.168 190.657 111.132 148.041 111.267 146.163C111.335 145.233 111.985 144.456 112.889 144.243L178.73 128.504C179.363 128.35 180.039 128.504 180.546 128.922C181.053 129.341 181.34 129.972 181.323 130.629C179.972 184.051 172.252 204.876 168.899 211.474C179.794 214.009 188.333 205.619 188.713 205.235C188.924 205.021 189.177 204.859 189.447 204.757C205.57 198.552 204.987 180.568 204.979 180.381L201.601 76.2265C200.697 57.9101 190.013 44.3905 181.213 36.2821C171.366 27.2093 158.917 22.2589 146.046 22.2589L146.029 22.2675Z" fill="#1D1D1B"/>
<path d="M134.797 50.3992L155.201 63.5177C163.469 68.835 170.766 75.5607 176.771 83.3874C180.174 87.8172 183.628 92.1018 185.123 93.2284C185.123 93.2284 204.953 81.2707 207.284 102.182C209.615 123.101 188.502 123.101 185.123 117.98C185.123 117.98 175.833 153.828 135.295 152.121C94.7563 150.414 94.7563 113.713 94.7563 113.713C94.7563 113.713 91.3781 81.2793 96.4454 71.0371C96.4454 71.0371 103.21 57.3724 126.647 49.375C129.375 48.4446 132.373 48.8287 134.805 50.3906L134.797 50.3992Z" fill="#F4C595"/>
<path d="M138.031 153.896C137.111 153.896 136.173 153.879 135.219 153.836C94.6297 152.129 93.1179 116.068 93.0588 113.832C92.8392 111.69 89.765 80.7074 94.9253 70.286C95.2124 69.7056 102.273 55.8958 126.098 47.7704C129.315 46.6693 132.812 47.1046 135.7 48.9653L156.105 62.0838C164.542 67.5121 171.948 74.3317 178.097 82.3547C182.184 87.6806 184.279 90.0875 185.351 91.1715C188.189 89.7034 195.883 86.3406 201.896 89.3535C205.857 91.3422 208.23 95.6012 208.948 102.011C210.468 115.667 202.47 120.157 198.957 121.446C194.447 123.11 189.152 122.786 185.926 120.933C184.693 124.305 181.931 130.587 176.678 136.809C169.997 144.712 157.946 153.896 138.014 153.896H138.031ZM129.662 50.5869C128.826 50.5869 127.989 50.7235 127.179 50.9966C104.781 58.6356 98.0079 71.6772 97.9487 71.8138C93.1601 81.4926 96.3948 113.226 96.4286 113.542C96.4286 113.602 96.437 113.661 96.437 113.721C96.437 115.155 96.9606 148.809 135.354 150.422C151.578 151.105 164.575 145.813 174.026 134.692C181.12 126.336 183.46 117.639 183.476 117.554C183.645 116.905 184.177 116.418 184.836 116.307C185.487 116.196 186.154 116.487 186.517 117.041C187.665 118.774 192.902 120.037 197.8 118.236C201.229 116.973 206.795 113.226 205.587 102.387C205.013 97.1972 203.264 93.8429 200.393 92.4005C195.646 90.0192 188.375 93.254 185.976 94.705C185.385 95.0635 184.642 95.0208 184.093 94.6026C183.578 94.21 182.007 93.0236 175.419 84.4372C169.499 76.73 162.388 70.175 154.28 64.9601L133.876 51.8416C132.584 51.0137 131.123 50.5869 129.653 50.5869H129.662Z" fill="#1D1D1B"/>
<path d="M131.435 50.7577C130.743 50.7577 130.092 50.3224 129.847 49.6225C125.642 37.7416 139.526 25.8436 140.117 25.3486C140.835 24.7426 141.899 24.845 142.499 25.562C143.098 26.2875 143.006 27.3629 142.288 27.9689C142.161 28.0799 129.619 38.8426 133.031 48.4788C133.344 49.3664 132.888 50.3394 132.009 50.6638C131.824 50.7321 131.629 50.7662 131.444 50.7662L131.435 50.7577Z" fill="#1D1D1B"/>
<path d="M172.447 215.289C172.058 215.289 171.67 215.153 171.349 214.88C170.639 214.265 170.555 213.19 171.163 212.473C171.264 212.362 180.892 200.788 180.892 186.27C180.892 185.331 181.652 184.563 182.581 184.563C183.51 184.563 184.27 185.331 184.27 186.27C184.27 202.085 174.161 214.188 173.73 214.692C173.392 215.084 172.92 215.289 172.447 215.289Z" fill="#1D1D1B"/>
<path d="M189.338 208.461C189.084 208.461 188.822 208.401 188.586 208.282C187.75 207.864 187.412 206.839 187.826 205.994C187.86 205.926 191.111 199.226 192.733 187.738C192.868 186.807 193.721 186.15 194.641 186.287C195.562 186.423 196.204 187.285 196.077 188.216C194.371 200.301 190.993 207.223 190.849 207.514C190.554 208.111 189.954 208.461 189.338 208.461Z" fill="#1D1D1B"/>
<path d="M106.681 217.372C106.056 217.372 105.457 217.022 105.161 216.416C105.009 216.1 101.479 208.666 102.349 198.074C102.425 197.135 103.244 196.444 104.173 196.512C105.102 196.589 105.795 197.417 105.719 198.356C104.925 207.958 108.168 214.845 108.193 214.914C108.598 215.759 108.252 216.783 107.416 217.193C107.18 217.312 106.926 217.363 106.673 217.363L106.681 217.372Z" fill="#1D1D1B"/>
<path d="M92.2143 208.461C91.4288 208.461 90.7278 207.906 90.5589 207.104C90.3478 206.071 85.4663 181.644 92.3494 165.128C92.7125 164.258 93.7007 163.848 94.5621 164.215C95.4235 164.582 95.8289 165.581 95.4658 166.451C88.9965 181.985 93.8273 206.174 93.878 206.413C94.0638 207.335 93.4811 208.239 92.569 208.427C92.4507 208.453 92.3409 208.461 92.2227 208.461H92.2143Z" fill="#1D1D1B"/>
<path d="M160.623 82.9948C160.294 82.9948 159.956 82.8924 159.66 82.6876C159.348 82.4657 151.856 77.336 143.588 81.1342C142.744 81.5268 141.739 81.1427 141.35 80.2892C140.962 79.4272 141.342 78.42 142.186 78.0274C152.237 73.4099 161.214 79.6235 161.586 79.8881C162.354 80.4258 162.532 81.4927 162 82.2694C161.67 82.7473 161.147 82.9948 160.614 82.9948H160.623Z" fill="#1D1D1B"/>
<path d="M101.918 82.9949C101.428 82.9949 100.947 82.7815 100.617 82.3718C100.026 81.6463 100.128 80.5709 100.846 79.9649C107.281 74.6049 114.645 76.9947 117.644 79.009C118.421 79.5296 118.632 80.588 118.117 81.3732C117.601 82.1584 116.554 82.3718 115.777 81.8512C115.507 81.6719 109.08 77.5239 102.991 82.5937C102.678 82.8583 102.298 82.9863 101.918 82.9863V82.9949Z" fill="#1D1D1B"/>
<path d="M128.53 118.842C128.53 118.842 128.462 118.842 128.437 118.842C123.175 118.544 120.262 117.186 119.527 114.686C118.353 110.691 123.885 106.355 125 105.519C125.751 104.964 126.807 105.126 127.356 105.886C127.905 106.646 127.744 107.712 126.993 108.276C124.729 109.957 122.441 112.637 122.762 113.713C122.914 114.242 124.324 115.189 128.623 115.437C129.552 115.488 130.27 116.299 130.219 117.238C130.168 118.142 129.425 118.851 128.53 118.851V118.842Z" fill="#1D1D1B"/>
<path d="M129.442 131.227C125.912 131.227 121.968 130.612 117.779 128.974C116.909 128.632 116.478 127.642 116.816 126.763C117.154 125.884 118.134 125.449 119.003 125.79C133.124 131.338 143.985 123.759 144.441 123.426C145.201 122.88 146.257 123.059 146.798 123.827C147.338 124.595 147.161 125.653 146.401 126.208C146.021 126.481 139.298 131.227 129.442 131.227Z" fill="#1D1D1B"/>
<path d="M149.644 106.893C152.442 106.893 154.711 103.454 154.711 99.2115C154.711 94.9691 152.442 91.5299 149.644 91.5299C146.845 91.5299 144.576 94.9691 144.576 99.2115C144.576 103.454 146.845 106.893 149.644 106.893Z" fill="#1D1D1B"/>
<path d="M112.483 107.747C115.282 107.747 117.551 104.307 117.551 100.065C117.551 95.8226 115.282 92.3834 112.483 92.3834C109.685 92.3834 107.416 95.8226 107.416 100.065C107.416 104.307 109.685 107.747 112.483 107.747Z" fill="#1D1D1B"/>
<path d="M190.976 109.454C190.917 109.454 190.858 109.454 190.799 109.445C189.87 109.351 189.194 108.506 189.295 107.568C189.574 104.836 190.638 102.788 192.462 101.456C195.562 99.1945 199.666 100.065 199.835 100.108C200.748 100.313 201.322 101.217 201.128 102.139C200.925 103.061 200.038 103.641 199.126 103.445C199.092 103.445 196.297 102.865 194.43 104.239C193.417 104.981 192.843 106.193 192.657 107.926C192.564 108.805 191.829 109.454 190.976 109.454Z" fill="#1D1D1B"/>
<path d="M194.422 133.48C198.822 124.057 194.422 117.468 194.422 117.468C194.422 117.468 190.013 124.049 194.422 133.48Z" fill="#2D2D2E"/>
<path d="M194.422 133.975L194.228 133.565C189.819 124.143 194.202 117.408 194.245 117.349L194.422 117.084L194.599 117.349C194.641 117.417 199.016 124.143 194.616 133.565L194.422 133.975ZM194.422 117.886C193.67 119.235 190.925 125.09 194.422 132.968C197.91 125.073 195.174 119.235 194.422 117.886Z" fill="#BCBCBB"/>
<path d="M194.426 117.465L196.976 114.888L194.426 112.311L191.876 114.888L194.426 117.465Z" fill="#2D2D2E"/>
<path d="M194.422 117.775L191.567 114.899L194.422 112.023L197.268 114.899L194.422 117.775ZM192.167 114.891L194.422 117.169L196.677 114.891L194.422 112.612L192.167 114.891Z" fill="#BCBCBB"/>
<path d="M133.69 197.997L133.226 197.57C121.841 187.14 120.963 160.946 120.929 159.837C120.912 159.367 121.284 158.974 121.748 158.957C122.179 158.957 122.601 159.316 122.618 159.785C122.618 160.05 123.488 185.613 133.901 195.872C137.448 193.584 157.675 179.723 168.3 155.202C168.486 154.767 168.984 154.57 169.415 154.758C169.845 154.946 170.04 155.449 169.845 155.885C158.005 183.206 134.467 197.536 134.231 197.673L133.699 197.997H133.69Z" fill="#1D1D1B"/>
<path d="M133.935 201.906C133.935 201.906 131.41 200.455 131.689 197.835C132.609 196.264 133.935 197.895 133.935 197.895C133.935 197.895 135.261 196.264 136.182 197.835C136.469 200.447 133.935 201.906 133.935 201.906Z" fill="#BDBCBD"/>
<path d="M135.219 197.161C135.54 197.161 135.886 197.331 136.182 197.843C136.469 200.455 133.935 201.915 133.935 201.915C133.935 201.915 131.41 200.464 131.689 197.843C131.984 197.331 132.33 197.161 132.651 197.161C133.327 197.161 133.927 197.903 133.927 197.903C133.927 197.903 134.535 197.161 135.202 197.161M135.219 196.094C134.72 196.094 134.29 196.282 133.943 196.503C133.597 196.282 133.158 196.094 132.668 196.094C132.229 196.094 131.41 196.247 130.793 197.297L130.675 197.494L130.65 197.724C130.295 201.001 133.293 202.76 133.42 202.836L133.943 203.135L134.467 202.836C134.594 202.76 137.6 201.001 137.237 197.724L137.212 197.494L137.094 197.297C136.477 196.247 135.658 196.094 135.219 196.094Z" fill="#1D1D1B"/>
<path d="M133.935 205.96C133.935 205.96 132.314 205.03 132.499 203.357C133.091 202.35 133.935 203.4 133.935 203.4C133.935 203.4 134.78 202.359 135.371 203.357C135.557 205.03 133.935 205.96 133.935 205.96Z" fill="#BDBCBD"/>
<path d="M134.754 202.922C134.965 202.922 135.177 203.033 135.371 203.357C135.557 205.03 133.935 205.96 133.935 205.96C133.935 205.96 132.314 205.03 132.499 203.357C132.694 203.033 132.913 202.922 133.116 202.922C133.547 202.922 133.935 203.4 133.935 203.4C133.935 203.4 134.324 202.922 134.754 202.922ZM134.754 202.282C134.433 202.282 134.155 202.401 133.935 202.555C133.715 202.41 133.437 202.282 133.116 202.282C132.846 202.282 132.339 202.376 131.95 203.033L131.883 203.152L131.866 203.289C131.638 205.354 133.538 206.472 133.614 206.515L133.927 206.694L134.239 206.515C134.324 206.472 136.224 205.354 135.996 203.289L135.979 203.152L135.911 203.033C135.531 202.376 135.016 202.282 134.746 202.282H134.754Z" fill="#1D1D1B"/>
<path d="M133.935 208.598C133.935 208.598 132.727 207.906 132.862 206.652C133.302 205.901 133.935 206.686 133.935 206.686C133.935 206.686 134.568 205.909 135.008 206.652C135.143 207.898 133.935 208.598 133.935 208.598Z" fill="#BDBCBD"/>
<path d="M134.552 206.327C134.704 206.327 134.873 206.413 135.016 206.652C135.151 207.898 133.944 208.598 133.944 208.598C133.944 208.598 132.736 207.906 132.871 206.652C133.015 206.404 133.175 206.327 133.335 206.327C133.656 206.327 133.944 206.686 133.944 206.686C133.944 206.686 134.231 206.327 134.552 206.327ZM134.552 205.901C134.315 205.901 134.104 206.003 133.944 206.114C133.783 206.003 133.572 205.901 133.335 205.901C133.099 205.901 132.77 205.995 132.508 206.438L132.457 206.515V206.609C132.28 208.12 133.673 208.931 133.732 208.965L133.944 209.084L134.155 208.965C134.214 208.931 135.607 208.111 135.438 206.601V206.507L135.379 206.43C135.117 205.986 134.788 205.892 134.552 205.892V205.901Z" fill="#1D1D1B"/>
</g>
<mask id="mask1_253_2825" style="mask-type:luminance" maskUnits="userSpaceOnUse" x="24" y="167" width="205" height="143">
<path d="M24.9999 167H228.665V309.687H24.9999V167Z" fill="white"/>
</mask>
<g mask="url(#mask1_253_2825)">
<path d="M223.131 167C226.187 167 228.665 169.478 228.665 172.536V304.152C228.665 307.209 226.187 309.687 223.131 309.687H30.5342C27.4777 309.687 24.9999 307.209 24.9999 304.152V172.536C24.9999 169.478 27.4777 167 30.5342 167H223.131Z" fill="url(#paint0_linear_253_2825)"/>
<path d="M133.092 210.598C133.092 212.093 132.555 213.489 131.484 214.781C130.192 216.317 128.629 217.205 126.934 217.065C126.911 216.877 126.9 216.687 126.9 216.498C126.9 215.063 127.514 213.527 128.606 212.271C129.15 211.635 129.843 211.106 130.684 210.684C131.522 210.269 132.315 210.039 133.061 210C133.071 210.089 133.078 210.178 133.083 210.266C133.089 210.377 133.092 210.488 133.092 210.598Z" fill="#202021"/>
<path d="M138.766 233.296C138.321 234.341 137.795 235.302 137.185 236.186C136.354 237.391 135.673 238.225 135.148 238.688C134.335 239.448 133.464 239.838 132.531 239.86C131.862 239.86 131.054 239.666 130.114 239.273C129.171 238.882 128.304 238.688 127.511 238.688C126.68 238.688 125.789 238.882 124.835 239.273C123.88 239.666 123.111 239.871 122.522 239.891C121.628 239.93 120.736 239.53 119.846 238.688C119.278 238.184 118.567 237.321 117.716 236.097C116.803 234.791 116.052 233.276 115.464 231.549C114.834 229.683 114.518 227.877 114.518 226.128C114.518 224.125 114.944 222.397 115.797 220.949C116.467 219.786 117.359 218.868 118.475 218.195C119.591 217.521 120.797 217.178 122.095 217.156C122.806 217.156 123.737 217.38 124.895 217.819C126.05 218.259 126.791 218.483 127.116 218.483C127.359 218.483 128.183 218.222 129.579 217.701C130.9 217.218 132.014 217.017 132.927 217.096C135.401 217.299 137.259 218.291 138.495 220.077C136.283 221.44 135.188 223.349 135.21 225.798C135.23 227.705 135.911 229.292 137.248 230.553C137.855 231.137 138.531 231.589 139.285 231.911C139.127 232.378 138.954 232.84 138.766 233.296Z" fill="#202021"/>
</g>
</g>
<defs>
<linearGradient id="paint0_linear_253_2825" x1="126.832" y1="167" x2="126.832" y2="309.687" gradientUnits="userSpaceOnUse">
<stop stop-color="#EBECEE"/>
<stop offset="1" stop-color="#959698"/>
</linearGradient>
<clipPath id="clip0_253_2825">
<rect width="165" height="626" fill="white" transform="translate(55.9999 18)"/>
</clipPath>
</defs>
</svg>
