<svg width="47" height="47" viewBox="0 0 47 47" fill="none" xmlns="http://www.w3.org/2000/svg">
<path d="M9.75847 14.0941C12.1249 14.0941 14.0433 12.1757 14.0433 9.80925C14.0433 7.4428 12.1249 5.52441 9.75847 5.52441C7.39202 5.52441 5.47363 7.4428 5.47363 9.80925C5.47363 12.1757 7.39202 14.0941 9.75847 14.0941Z" fill="#A10069"/>
<path d="M18.0891 17.3409V41.1131H25.4701V29.3573C25.4701 26.2553 26.0537 23.2512 29.8998 23.2512C33.6931 23.2512 33.7401 26.7977 33.7401 29.5531V41.1151H41.125V28.0785C41.125 21.6747 39.7463 16.7534 32.2616 16.7534C28.668 16.7534 26.2593 18.7255 25.2742 20.5918H25.1744V17.3409H18.0891ZM6.06104 17.3409H13.4537V41.1131H6.06104V17.3409Z" fill="#A10069"/>
</svg>
