<svg width="27" height="27" viewBox="0 0 27 27" fill="none" xmlns="http://www.w3.org/2000/svg">
<path d="M13.5 4.5C15.975 4.5 18 6.525 18 9C18 11.3625 15.6375 15.1875 13.5 17.8875C11.3625 15.075 9 11.3625 9 9C9 6.525 11.025 4.5 13.5 4.5ZM13.5 2.25C9.7875 2.25 6.75 5.2875 6.75 9C6.75 14.0625 13.5 21.375 13.5 21.375C13.5 21.375 20.25 13.95 20.25 9C20.25 5.2875 17.2125 2.25 13.5 2.25ZM13.5 6.75C12.2625 6.75 11.25 7.7625 11.25 9C11.25 10.2375 12.2625 11.25 13.5 11.25C14.7375 11.25 15.75 10.2375 15.75 9C15.75 7.7625 14.7375 6.75 13.5 6.75ZM22.5 21.375C22.5 23.85 18.45 25.875 13.5 25.875C8.55 25.875 4.5 23.85 4.5 21.375C4.5 19.9125 5.85 18.675 7.9875 17.775L8.6625 18.7875C7.5375 19.35 6.75 20.025 6.75 20.8125C6.75 22.3875 9.7875 23.625 13.5 23.625C17.2125 23.625 20.25 22.3875 20.25 20.8125C20.25 20.025 19.4625 19.35 18.225 18.7875L18.9 17.775C21.15 18.675 22.5 19.9125 22.5 21.375Z" fill="#A10069"/>
</svg>
